<?xml version="1.0" encoding="UTF-8"?>
<svg width="384px" height="448px" viewBox="0 0 384 448" version="1.1" xmlns="http://www.w3.org/2000/svg" xmlns:xlink="http://www.w3.org/1999/xlink">
    <!-- Generator: Sketch 63.1 (92452) - https://sketch.com -->
    <title>flag-outline</title>
    <desc>Created with Sketch.</desc>
    <g id="Page-1" stroke="none" stroke-width="1" fill="none" fill-rule="evenodd" stroke-linecap="round">
        <g id="flag-outline" transform="translate(16.000000, 16.000000)" stroke="#606873" stroke-width="32">
            <path d="M0,416 L0,20.14 C0.0100508051,17.2919564 1.53349632,14.6640129 4,13.24 C11.81,8.66 32.92,0 80,0 C144,0 225,48 272,48 C298.535859,47.9311281 324.791429,42.5698653 349.23,32.23 C349.847978,31.9722051 350.553964,32.0407677 351.11079,32.4126551 C351.667616,32.7845424 352,33.4104081 352,34.08 L352,253.44 C351.995377,255.022287 351.058466,256.453133 349.61,257.09 C341.37,260.7 312.33,272 272,272 C224,272 144,240 80,240 C16,240 0,256 0,256" id="Path"></path>
        </g>
    </g>
</svg>