<?xml version="1.0" encoding="UTF-8"?>
<svg width="38px" height="30px" viewBox="0 0 38 30" version="1.1" xmlns="http://www.w3.org/2000/svg" xmlns:xlink="http://www.w3.org/1999/xlink">
    <!-- Generator: Sketch 63.1 (92452) - https://sketch.com -->
    <title>Combined Shape</title>
    <desc>Created with Sketch.</desc>
    <g id="Symbols" stroke="none" stroke-width="1" fill="none" fill-rule="evenodd">
        <g id="icon-/-sound" transform="translate(-2.000000, -6.000000)" fill="#FFFFFF">
            <g id="Group" transform="translate(2.837838, 5.675676)">
                <path d="M14.5795307,0.444763488 C14.6926703,0.551948318 14.7567568,0.70094094 14.7567568,0.856790687 L14.7567568,29.791858 C14.7567568,30.1053169 14.5026481,30.3594255 14.1891892,30.3594255 C14.0333394,30.3594255 13.8843468,30.2953391 13.777162,30.1821995 L4.54054054,20.4324324 L0.567567568,20.4324324 C0.254108656,20.4324324 3.83876453e-17,20.1783238 0,19.8648649 L0,10.7837838 C-3.83876453e-17,10.4703249 0.254108656,10.2162162 0.567567568,10.2162162 L4.54054054,10.2162162 L13.777162,0.46644913 C13.9927417,0.238892792 14.3519744,0.229183799 14.5795307,0.444763488 Z M31.2391857,2.38157049 C34.9708491,5.77286652 37.1401486,10.5705092 37.1401486,15.7159459 C37.1401486,20.8613827 34.9708491,25.6590254 31.2391857,29.0503214 C30.8304668,29.4217608 30.1980235,29.3915398 29.826584,28.9828209 C29.4551446,28.5741019 29.4853656,27.9416586 29.8940845,27.5702191 C33.2129101,24.5541057 35.1401486,20.2918073 35.1401486,15.7159459 C35.1401486,11.1400845 33.2129101,6.87778621 29.8940845,3.86167275 C29.4853656,3.4902333 29.4551446,2.85778996 29.826584,2.44907101 C30.1980235,2.04035206 30.8304668,2.01013105 31.2391857,2.38157049 Z M26.2849922,6.57650546 C28.8412103,8.90380851 30.3293378,12.1947337 30.3293378,15.7159459 C30.3293378,19.2430525 28.8408531,22.5347677 26.2839846,24.8563025 C25.8750969,25.2275563 25.2426674,25.1970479 24.8714137,24.7881603 C24.5001599,24.3792726 24.5306683,23.7468431 24.9395559,23.3755893 C27.0830785,21.4293562 28.3293378,18.6733113 28.3293378,15.7159459 C28.3293378,12.7640376 27.0829835,10.0077826 24.9385483,8.05538643 C24.5301666,7.68357622 24.5005196,7.05110572 24.8723298,6.64272401 C25.24414,6.23434231 25.8766105,6.20469526 26.2849922,6.57650546 Z M21.8958665,10.7748449 C23.2814934,12.0301406 24.0860946,13.8094788 24.0860946,15.7159459 C24.0860946,17.6285296 23.2809227,19.4091301 21.893844,20.6588742 C21.483536,21.0285576 20.8512281,20.9956249 20.4815447,20.585317 C20.1118613,20.175009 20.144794,19.5427011 20.5551019,19.1730177 C21.5244165,18.2996749 22.0860946,17.0575497 22.0860946,15.7159459 C22.0860946,14.379577 21.5240862,13.1367214 20.5530795,12.257047 C20.1437807,11.8862466 20.1125715,11.2538512 20.4833719,10.8445524 C20.8541723,10.4352536 21.4865677,10.4040445 21.8958665,10.7748449 Z" id="Combined-Shape"></path>
            </g>
        </g>
    </g>
</svg>